<svg xmlns="http://www.w3.org/2000/svg" width="1254" height="1254" viewBox="0 0 1254 1254" role="img" aria-label="House outline with dollar sign icon">
  <rect width="100%" height="100%" fill="#000000"/>
  <path d="M 617.0 301.0 L 607.0 305.0 L 588.0 320.0 L 330.0 541.0 L 313.0 557.0 L 308.0 566.0 L 306.0 573.0 L 307.0 591.0 L 311.0 600.0 L 319.0 609.0 L 333.0 616.0 L 373.0 618.0 L 373.0 860.0 L 376.0 876.0 L 384.0 895.0 L 391.0 905.0 L 402.0 916.0 L 422.0 928.0 L 441.0 933.0 L 811.0 933.0 L 823.0 931.0 L 843.0 922.0 L 862.0 906.0 L 873.0 889.0 L 879.0 872.0 L 881.0 859.0 L 881.0 618.0 L 915.0 617.0 L 932.0 611.0 L 939.0 605.0 L 946.0 593.0 L 948.0 587.0 L 947.0 570.0 L 942.0 559.0 L 933.0 549.0 L 652.0 308.0 L 634.0 300.0 Z
M 625.0 331.0 L 631.0 332.0 L 910.0 570.0 L 918.0 579.0 L 917.0 583.0 L 914.0 586.0 L 860.0 587.0 L 854.0 591.0 L 850.0 599.0 L 850.0 863.0 L 841.0 883.0 L 831.0 893.0 L 821.0 899.0 L 811.0 902.0 L 442.0 902.0 L 435.0 900.0 L 420.0 891.0 L 412.0 882.0 L 407.0 873.0 L 404.0 863.0 L 404.0 600.0 L 400.0 591.0 L 390.0 586.0 L 340.0 586.0 L 336.0 582.0 L 336.0 578.0 Z
M 622.0 451.0 L 618.0 453.0 L 612.0 461.0 L 612.0 492.0 L 581.0 501.0 L 563.0 512.0 L 550.0 525.0 L 540.0 540.0 L 533.0 557.0 L 530.0 571.0 L 530.0 593.0 L 532.0 603.0 L 541.0 624.0 L 548.0 634.0 L 559.0 645.0 L 569.0 652.0 L 591.0 662.0 L 612.0 667.0 L 612.0 779.0 L 601.0 779.0 L 590.0 775.0 L 576.0 767.0 L 562.0 751.0 L 558.0 741.0 L 556.0 728.0 L 550.0 720.0 L 544.0 718.0 L 533.0 720.0 L 529.0 723.0 L 526.0 729.0 L 526.0 736.0 L 532.0 760.0 L 547.0 783.0 L 560.0 794.0 L 576.0 803.0 L 598.0 810.0 L 611.0 811.0 L 612.0 842.0 L 617.0 849.0 L 624.0 852.0 L 630.0 852.0 L 635.0 850.0 L 640.0 845.0 L 642.0 840.0 L 643.0 811.0 L 665.0 808.0 L 686.0 799.0 L 700.0 789.0 L 715.0 772.0 L 722.0 758.0 L 727.0 740.0 L 727.0 715.0 L 722.0 696.0 L 710.0 675.0 L 695.0 660.0 L 675.0 648.0 L 658.0 642.0 L 644.0 640.0 L 642.0 638.0 L 642.0 526.0 L 652.0 526.0 L 667.0 533.0 L 681.0 546.0 L 688.0 558.0 L 691.0 575.0 L 693.0 579.0 L 699.0 584.0 L 710.0 585.0 L 716.0 582.0 L 720.0 577.0 L 721.0 562.0 L 717.0 547.0 L 705.0 526.0 L 695.0 515.0 L 686.0 508.0 L 664.0 497.0 L 642.0 492.0 L 641.0 460.0 L 638.0 455.0 L 632.0 451.0 Z
M 643.0 671.0 L 664.0 677.0 L 681.0 689.0 L 687.0 696.0 L 693.0 707.0 L 697.0 723.0 L 697.0 732.0 L 694.0 745.0 L 683.0 762.0 L 672.0 771.0 L 662.0 776.0 L 647.0 780.0 L 642.0 779.0 Z
M 608.0 525.0 L 612.0 526.0 L 611.0 634.0 L 596.0 631.0 L 580.0 622.0 L 568.0 609.0 L 563.0 599.0 L 560.0 587.0 L 562.0 568.0 L 569.0 552.0 L 574.0 545.0 L 591.0 531.0 Z" fill="#ffffff" fill-rule="evenodd"/>
</svg>
